<mxfile host="app.diagrams.net" modified="2022-06-16T05:54:12.296Z" agent="5.0 (Windows NT 10.0; Win64; x64) AppleWebKit/537.36 (KHTML, like Gecko) Chrome/102.0.5005.63 Safari/537.36 Edg/102.0.1245.33" etag="EDoOaf5aD9XdKiL0_iD6" version="20.0.1" type="github">
  <diagram id="C5RBs43oDa-KdzZeNtuy" name="第 1 页">
    <mxGraphModel dx="1422" dy="762" grid="1" gridSize="10" guides="1" tooltips="1" connect="1" arrows="1" fold="1" page="1" pageScale="1" pageWidth="827" pageHeight="1169" math="0" shadow="0">
      <root>
        <mxCell id="WIyWlLk6GJQsqaUBKTNV-0" />
        <mxCell id="WIyWlLk6GJQsqaUBKTNV-1" parent="WIyWlLk6GJQsqaUBKTNV-0" />
        <mxCell id="OJuao177084ycJFc4pqW-50" style="edgeStyle=orthogonalEdgeStyle;rounded=0;orthogonalLoop=1;jettySize=auto;html=1;exitX=1;exitY=0.5;exitDx=0;exitDy=0;entryX=0;entryY=0.5;entryDx=0;entryDy=0;" edge="1" parent="WIyWlLk6GJQsqaUBKTNV-1" source="OJuao177084ycJFc4pqW-51" target="OJuao177084ycJFc4pqW-53">
          <mxGeometry relative="1" as="geometry" />
        </mxCell>
        <mxCell id="OJuao177084ycJFc4pqW-51" value="原始语料&lt;br&gt;（无错误）" style="shape=datastore;whiteSpace=wrap;html=1;" vertex="1" parent="WIyWlLk6GJQsqaUBKTNV-1">
          <mxGeometry x="35" y="80" width="80" height="90" as="geometry" />
        </mxCell>
        <mxCell id="OJuao177084ycJFc4pqW-52" style="edgeStyle=orthogonalEdgeStyle;rounded=0;orthogonalLoop=1;jettySize=auto;html=1;exitX=1;exitY=0.5;exitDx=0;exitDy=0;entryX=0;entryY=0.5;entryDx=0;entryDy=0;" edge="1" parent="WIyWlLk6GJQsqaUBKTNV-1" source="OJuao177084ycJFc4pqW-53" target="OJuao177084ycJFc4pqW-55">
          <mxGeometry relative="1" as="geometry" />
        </mxCell>
        <mxCell id="OJuao177084ycJFc4pqW-53" value="选择&lt;br&gt;文本片段" style="shape=hexagon;perimeter=hexagonPerimeter2;whiteSpace=wrap;html=1;fixedSize=1;" vertex="1" parent="WIyWlLk6GJQsqaUBKTNV-1">
          <mxGeometry x="154" y="100" width="90" height="50" as="geometry" />
        </mxCell>
        <mxCell id="OJuao177084ycJFc4pqW-54" style="edgeStyle=orthogonalEdgeStyle;rounded=0;orthogonalLoop=1;jettySize=auto;html=1;exitX=1;exitY=0.5;exitDx=0;exitDy=0;entryX=0;entryY=0.5;entryDx=0;entryDy=0;" edge="1" parent="WIyWlLk6GJQsqaUBKTNV-1" source="OJuao177084ycJFc4pqW-55" target="OJuao177084ycJFc4pqW-57">
          <mxGeometry relative="1" as="geometry" />
        </mxCell>
        <mxCell id="OJuao177084ycJFc4pqW-55" value="西安到了" style="rounded=0;whiteSpace=wrap;html=1;" vertex="1" parent="WIyWlLk6GJQsqaUBKTNV-1">
          <mxGeometry x="283" y="107.5" width="70" height="35" as="geometry" />
        </mxCell>
        <mxCell id="OJuao177084ycJFc4pqW-56" style="edgeStyle=orthogonalEdgeStyle;rounded=0;orthogonalLoop=1;jettySize=auto;html=1;exitX=1;exitY=0.5;exitDx=0;exitDy=0;entryX=0;entryY=0.5;entryDx=0;entryDy=0;" edge="1" parent="WIyWlLk6GJQsqaUBKTNV-1" source="OJuao177084ycJFc4pqW-57" target="OJuao177084ycJFc4pqW-59">
          <mxGeometry relative="1" as="geometry" />
        </mxCell>
        <mxCell id="OJuao177084ycJFc4pqW-57" value="生成&lt;br&gt;拼音序列" style="shape=hexagon;perimeter=hexagonPerimeter2;whiteSpace=wrap;html=1;fixedSize=1;" vertex="1" parent="WIyWlLk6GJQsqaUBKTNV-1">
          <mxGeometry x="385" y="100" width="90" height="50" as="geometry" />
        </mxCell>
        <mxCell id="OJuao177084ycJFc4pqW-58" style="edgeStyle=orthogonalEdgeStyle;rounded=0;orthogonalLoop=1;jettySize=auto;html=1;exitX=1;exitY=0.5;exitDx=0;exitDy=0;entryX=0;entryY=0.5;entryDx=0;entryDy=0;" edge="1" parent="WIyWlLk6GJQsqaUBKTNV-1" source="OJuao177084ycJFc4pqW-59" target="OJuao177084ycJFc4pqW-62">
          <mxGeometry relative="1" as="geometry">
            <Array as="points">
              <mxPoint x="595" y="125" />
              <mxPoint x="595" y="180" />
              <mxPoint x="134" y="180" />
              <mxPoint x="134" y="444" />
            </Array>
          </mxGeometry>
        </mxCell>
        <mxCell id="OJuao177084ycJFc4pqW-59" value="xiandaole" style="rounded=0;whiteSpace=wrap;html=1;" vertex="1" parent="WIyWlLk6GJQsqaUBKTNV-1">
          <mxGeometry x="505" y="107.5" width="70" height="35" as="geometry" />
        </mxCell>
        <mxCell id="OJuao177084ycJFc4pqW-60" style="edgeStyle=orthogonalEdgeStyle;rounded=0;orthogonalLoop=1;jettySize=auto;html=1;exitX=1;exitY=0.5;exitDx=0;exitDy=0;entryX=0.5;entryY=1;entryDx=0;entryDy=0;" edge="1" parent="WIyWlLk6GJQsqaUBKTNV-1" source="OJuao177084ycJFc4pqW-62" target="OJuao177084ycJFc4pqW-64">
          <mxGeometry relative="1" as="geometry">
            <mxPoint x="288" y="345" as="targetPoint" />
          </mxGeometry>
        </mxCell>
        <mxCell id="OJuao177084ycJFc4pqW-61" style="edgeStyle=orthogonalEdgeStyle;rounded=0;orthogonalLoop=1;jettySize=auto;html=1;exitX=1;exitY=0.5;exitDx=0;exitDy=0;entryX=0.5;entryY=0;entryDx=0;entryDy=0;" edge="1" parent="WIyWlLk6GJQsqaUBKTNV-1" source="OJuao177084ycJFc4pqW-62" target="OJuao177084ycJFc4pqW-66">
          <mxGeometry relative="1" as="geometry">
            <mxPoint x="288" y="545" as="targetPoint" />
          </mxGeometry>
        </mxCell>
        <mxCell id="OJuao177084ycJFc4pqW-62" value="扰动&lt;br&gt;拼音序列" style="shape=hexagon;perimeter=hexagonPerimeter2;whiteSpace=wrap;html=1;fixedSize=1;" vertex="1" parent="WIyWlLk6GJQsqaUBKTNV-1">
          <mxGeometry x="154" y="419" width="90" height="50" as="geometry" />
        </mxCell>
        <mxCell id="OJuao177084ycJFc4pqW-63" value="" style="edgeStyle=orthogonalEdgeStyle;rounded=0;orthogonalLoop=1;jettySize=auto;html=1;" edge="1" parent="WIyWlLk6GJQsqaUBKTNV-1" source="OJuao177084ycJFc4pqW-64" target="OJuao177084ycJFc4pqW-67">
          <mxGeometry relative="1" as="geometry" />
        </mxCell>
        <mxCell id="OJuao177084ycJFc4pqW-64" value="xian&lt;font color=&quot;#ff0000&quot;&gt;g&lt;/font&gt;daole" style="rounded=0;whiteSpace=wrap;html=1;" vertex="1" parent="WIyWlLk6GJQsqaUBKTNV-1">
          <mxGeometry x="250" y="319" width="76" height="20" as="geometry" />
        </mxCell>
        <mxCell id="OJuao177084ycJFc4pqW-65" style="edgeStyle=orthogonalEdgeStyle;rounded=0;orthogonalLoop=1;jettySize=auto;html=1;" edge="1" parent="WIyWlLk6GJQsqaUBKTNV-1" source="OJuao177084ycJFc4pqW-66" target="OJuao177084ycJFc4pqW-73">
          <mxGeometry relative="1" as="geometry">
            <mxPoint x="356" y="559" as="targetPoint" />
          </mxGeometry>
        </mxCell>
        <mxCell id="OJuao177084ycJFc4pqW-66" value="xiand&lt;font color=&quot;#ff0000&quot;&gt;u&lt;/font&gt;ole" style="rounded=0;whiteSpace=wrap;html=1;" vertex="1" parent="WIyWlLk6GJQsqaUBKTNV-1">
          <mxGeometry x="250" y="549" width="76" height="20" as="geometry" />
        </mxCell>
        <mxCell id="OJuao177084ycJFc4pqW-67" value="拼音&lt;br&gt;重划分" style="shape=hexagon;perimeter=hexagonPerimeter2;whiteSpace=wrap;html=1;fixedSize=1;rounded=0;" vertex="1" name="六边形" parent="WIyWlLk6GJQsqaUBKTNV-1">
          <mxGeometry x="356" y="312" width="82" height="34" as="geometry" />
        </mxCell>
        <mxCell id="OJuao177084ycJFc4pqW-68" style="edgeStyle=orthogonalEdgeStyle;rounded=0;orthogonalLoop=1;jettySize=auto;html=1;" edge="1" parent="WIyWlLk6GJQsqaUBKTNV-1" source="OJuao177084ycJFc4pqW-70" target="OJuao177084ycJFc4pqW-89">
          <mxGeometry relative="1" as="geometry">
            <mxPoint x="490" y="329" as="targetPoint" />
          </mxGeometry>
        </mxCell>
        <mxCell id="OJuao177084ycJFc4pqW-69" style="edgeStyle=orthogonalEdgeStyle;rounded=0;orthogonalLoop=1;jettySize=auto;html=1;exitX=1;exitY=0.5;exitDx=0;exitDy=0;entryX=0.5;entryY=0;entryDx=0;entryDy=0;" edge="1" parent="WIyWlLk6GJQsqaUBKTNV-1" source="OJuao177084ycJFc4pqW-70" target="OJuao177084ycJFc4pqW-96">
          <mxGeometry relative="1" as="geometry" />
        </mxCell>
        <mxCell id="OJuao177084ycJFc4pqW-70" value="拼音&lt;br&gt;重划分" style="shape=hexagon;perimeter=hexagonPerimeter2;whiteSpace=wrap;html=1;fixedSize=1;rounded=0;" vertex="1" name="六边形" parent="WIyWlLk6GJQsqaUBKTNV-1">
          <mxGeometry x="356" y="312" width="82" height="34" as="geometry" />
        </mxCell>
        <mxCell id="OJuao177084ycJFc4pqW-71" style="edgeStyle=orthogonalEdgeStyle;rounded=0;orthogonalLoop=1;jettySize=auto;html=1;exitX=1;exitY=0.5;exitDx=0;exitDy=0;" edge="1" parent="WIyWlLk6GJQsqaUBKTNV-1" source="OJuao177084ycJFc4pqW-73" target="OJuao177084ycJFc4pqW-75">
          <mxGeometry relative="1" as="geometry">
            <mxPoint x="490" y="426" as="targetPoint" />
            <mxPoint x="440" y="560" as="sourcePoint" />
          </mxGeometry>
        </mxCell>
        <mxCell id="OJuao177084ycJFc4pqW-72" style="edgeStyle=orthogonalEdgeStyle;rounded=0;orthogonalLoop=1;jettySize=auto;html=1;exitX=1;exitY=0.5;exitDx=0;exitDy=0;" edge="1" parent="WIyWlLk6GJQsqaUBKTNV-1" source="OJuao177084ycJFc4pqW-73" target="OJuao177084ycJFc4pqW-77">
          <mxGeometry relative="1" as="geometry">
            <mxPoint x="490" y="676" as="targetPoint" />
            <mxPoint x="440" y="560" as="sourcePoint" />
            <Array as="points">
              <mxPoint x="505" y="559" />
            </Array>
          </mxGeometry>
        </mxCell>
        <mxCell id="OJuao177084ycJFc4pqW-73" value="拼音&lt;br&gt;重划分" style="shape=hexagon;perimeter=hexagonPerimeter2;whiteSpace=wrap;html=1;fixedSize=1;" vertex="1" name="六边形" parent="WIyWlLk6GJQsqaUBKTNV-1">
          <mxGeometry x="356" y="542" width="82" height="34" as="geometry" />
        </mxCell>
        <mxCell id="OJuao177084ycJFc4pqW-74" style="edgeStyle=orthogonalEdgeStyle;rounded=0;orthogonalLoop=1;jettySize=auto;html=1;" edge="1" parent="WIyWlLk6GJQsqaUBKTNV-1" source="OJuao177084ycJFc4pqW-75" target="OJuao177084ycJFc4pqW-80">
          <mxGeometry relative="1" as="geometry">
            <mxPoint x="576" y="483" as="targetPoint" />
          </mxGeometry>
        </mxCell>
        <mxCell id="OJuao177084ycJFc4pqW-75" value="xian duo le" style="whiteSpace=wrap;html=1;" vertex="1" name="长方形" parent="WIyWlLk6GJQsqaUBKTNV-1">
          <mxGeometry x="460" y="469" width="90" height="30" as="geometry" />
        </mxCell>
        <mxCell id="OJuao177084ycJFc4pqW-76" style="edgeStyle=orthogonalEdgeStyle;rounded=0;orthogonalLoop=1;jettySize=auto;html=1;" edge="1" parent="WIyWlLk6GJQsqaUBKTNV-1" source="OJuao177084ycJFc4pqW-77" target="OJuao177084ycJFc4pqW-85">
          <mxGeometry relative="1" as="geometry">
            <mxPoint x="576" y="637" as="targetPoint" />
          </mxGeometry>
        </mxCell>
        <mxCell id="OJuao177084ycJFc4pqW-77" value="xi an du o le" style="whiteSpace=wrap;html=1;" vertex="1" name="长方形" parent="WIyWlLk6GJQsqaUBKTNV-1">
          <mxGeometry x="460" y="623" width="90" height="30" as="geometry" />
        </mxCell>
        <mxCell id="OJuao177084ycJFc4pqW-78" style="edgeStyle=orthogonalEdgeStyle;rounded=0;orthogonalLoop=1;jettySize=auto;html=1;" edge="1" parent="WIyWlLk6GJQsqaUBKTNV-1" target="OJuao177084ycJFc4pqW-81">
          <mxGeometry relative="1" as="geometry">
            <mxPoint x="682" y="444" as="targetPoint" />
            <mxPoint x="651" y="483" as="sourcePoint" />
          </mxGeometry>
        </mxCell>
        <mxCell id="OJuao177084ycJFc4pqW-79" style="edgeStyle=orthogonalEdgeStyle;rounded=0;orthogonalLoop=1;jettySize=auto;html=1;exitX=1;exitY=0.5;exitDx=0;exitDy=0;" edge="1" parent="WIyWlLk6GJQsqaUBKTNV-1" source="OJuao177084ycJFc4pqW-80" target="OJuao177084ycJFc4pqW-82">
          <mxGeometry relative="1" as="geometry">
            <mxPoint x="702" y="534" as="targetPoint" />
            <mxPoint x="651" y="483" as="sourcePoint" />
          </mxGeometry>
        </mxCell>
        <mxCell id="OJuao177084ycJFc4pqW-80" value="生成&lt;br&gt;文字" style="shape=hexagon;perimeter=hexagonPerimeter2;whiteSpace=wrap;html=1;fixedSize=1;" vertex="1" name="六边形" parent="WIyWlLk6GJQsqaUBKTNV-1">
          <mxGeometry x="575" y="463" width="70" height="40" as="geometry" />
        </mxCell>
        <mxCell id="OJuao177084ycJFc4pqW-81" value="嫌多了" style="whiteSpace=wrap;html=1;" vertex="1" name="长方形" parent="WIyWlLk6GJQsqaUBKTNV-1">
          <mxGeometry x="662" y="427" width="80" height="30" as="geometry" />
        </mxCell>
        <mxCell id="OJuao177084ycJFc4pqW-82" value="先躲了" style="whiteSpace=wrap;html=1;" vertex="1" name="长方形" parent="WIyWlLk6GJQsqaUBKTNV-1">
          <mxGeometry x="662" y="510" width="80" height="30" as="geometry" />
        </mxCell>
        <mxCell id="OJuao177084ycJFc4pqW-83" style="edgeStyle=orthogonalEdgeStyle;rounded=0;orthogonalLoop=1;jettySize=auto;html=1;" edge="1" parent="WIyWlLk6GJQsqaUBKTNV-1" target="OJuao177084ycJFc4pqW-86">
          <mxGeometry relative="1" as="geometry">
            <mxPoint x="702" y="602" as="targetPoint" />
            <mxPoint x="651" y="637" as="sourcePoint" />
          </mxGeometry>
        </mxCell>
        <mxCell id="OJuao177084ycJFc4pqW-84" style="edgeStyle=orthogonalEdgeStyle;rounded=0;orthogonalLoop=1;jettySize=auto;html=1;exitX=1;exitY=0.5;exitDx=0;exitDy=0;" edge="1" parent="WIyWlLk6GJQsqaUBKTNV-1" source="OJuao177084ycJFc4pqW-85" target="OJuao177084ycJFc4pqW-87">
          <mxGeometry relative="1" as="geometry">
            <mxPoint x="702" y="682" as="targetPoint" />
            <mxPoint x="651" y="637" as="sourcePoint" />
          </mxGeometry>
        </mxCell>
        <mxCell id="OJuao177084ycJFc4pqW-85" value="生成&lt;br&gt;文字" style="shape=hexagon;perimeter=hexagonPerimeter2;whiteSpace=wrap;html=1;fixedSize=1;" vertex="1" name="六边形" parent="WIyWlLk6GJQsqaUBKTNV-1">
          <mxGeometry x="575" y="617" width="70" height="40" as="geometry" />
        </mxCell>
        <mxCell id="OJuao177084ycJFc4pqW-86" value="洗案牍哦了" style="whiteSpace=wrap;html=1;" vertex="1" name="长方形" parent="WIyWlLk6GJQsqaUBKTNV-1">
          <mxGeometry x="662" y="579" width="80" height="30" as="geometry" />
        </mxCell>
        <mxCell id="OJuao177084ycJFc4pqW-87" value="系暗渡哦了" style="whiteSpace=wrap;html=1;" vertex="1" name="长方形" parent="WIyWlLk6GJQsqaUBKTNV-1">
          <mxGeometry x="662" y="666" width="80" height="30" as="geometry" />
        </mxCell>
        <mxCell id="OJuao177084ycJFc4pqW-88" style="edgeStyle=orthogonalEdgeStyle;rounded=0;orthogonalLoop=1;jettySize=auto;html=1;" edge="1" parent="WIyWlLk6GJQsqaUBKTNV-1" source="OJuao177084ycJFc4pqW-89" target="OJuao177084ycJFc4pqW-92">
          <mxGeometry relative="1" as="geometry">
            <mxPoint x="590" y="277" as="targetPoint" />
          </mxGeometry>
        </mxCell>
        <mxCell id="OJuao177084ycJFc4pqW-89" value="xi ang dao le" style="whiteSpace=wrap;html=1;" vertex="1" name="长方形" parent="WIyWlLk6GJQsqaUBKTNV-1">
          <mxGeometry x="460" y="262" width="90" height="30" as="geometry" />
        </mxCell>
        <mxCell id="OJuao177084ycJFc4pqW-90" style="edgeStyle=orthogonalEdgeStyle;rounded=0;orthogonalLoop=1;jettySize=auto;html=1;" edge="1" parent="WIyWlLk6GJQsqaUBKTNV-1" target="OJuao177084ycJFc4pqW-93">
          <mxGeometry relative="1" as="geometry">
            <mxPoint x="706" y="233" as="targetPoint" />
            <mxPoint x="651" y="277" as="sourcePoint" />
          </mxGeometry>
        </mxCell>
        <mxCell id="OJuao177084ycJFc4pqW-91" style="edgeStyle=orthogonalEdgeStyle;rounded=0;orthogonalLoop=1;jettySize=auto;html=1;exitX=1;exitY=0.5;exitDx=0;exitDy=0;" edge="1" parent="WIyWlLk6GJQsqaUBKTNV-1" source="OJuao177084ycJFc4pqW-92" target="OJuao177084ycJFc4pqW-94">
          <mxGeometry relative="1" as="geometry">
            <mxPoint x="706" y="303" as="targetPoint" />
            <mxPoint x="651" y="277" as="sourcePoint" />
          </mxGeometry>
        </mxCell>
        <mxCell id="OJuao177084ycJFc4pqW-92" value="生成&lt;br&gt;文字" style="shape=hexagon;perimeter=hexagonPerimeter2;whiteSpace=wrap;html=1;fixedSize=1;" vertex="1" name="六边形" parent="WIyWlLk6GJQsqaUBKTNV-1">
          <mxGeometry x="575" y="257" width="70" height="40" as="geometry" />
        </mxCell>
        <mxCell id="OJuao177084ycJFc4pqW-93" value="希昂到了" style="whiteSpace=wrap;html=1;" vertex="1" name="长方形" parent="WIyWlLk6GJQsqaUBKTNV-1">
          <mxGeometry x="662" y="224" width="80" height="30" as="geometry" />
        </mxCell>
        <mxCell id="OJuao177084ycJFc4pqW-94" value="喜盎岛了" style="whiteSpace=wrap;html=1;" vertex="1" name="长方形" parent="WIyWlLk6GJQsqaUBKTNV-1">
          <mxGeometry x="662" y="300" width="80" height="30" as="geometry" />
        </mxCell>
        <mxCell id="OJuao177084ycJFc4pqW-95" style="edgeStyle=orthogonalEdgeStyle;rounded=0;orthogonalLoop=1;jettySize=auto;html=1;" edge="1" parent="WIyWlLk6GJQsqaUBKTNV-1" source="OJuao177084ycJFc4pqW-96" target="OJuao177084ycJFc4pqW-98">
          <mxGeometry relative="1" as="geometry">
            <mxPoint x="580" y="379" as="targetPoint" />
          </mxGeometry>
        </mxCell>
        <mxCell id="OJuao177084ycJFc4pqW-96" value="xiang dao le" style="rounded=0;whiteSpace=wrap;html=1;" vertex="1" parent="WIyWlLk6GJQsqaUBKTNV-1">
          <mxGeometry x="460" y="364" width="90" height="30" as="geometry" />
        </mxCell>
        <mxCell id="OJuao177084ycJFc4pqW-97" style="edgeStyle=orthogonalEdgeStyle;rounded=0;orthogonalLoop=1;jettySize=auto;html=1;" edge="1" parent="WIyWlLk6GJQsqaUBKTNV-1" source="OJuao177084ycJFc4pqW-98" target="OJuao177084ycJFc4pqW-99">
          <mxGeometry relative="1" as="geometry">
            <mxPoint x="680" y="379" as="targetPoint" />
          </mxGeometry>
        </mxCell>
        <mxCell id="OJuao177084ycJFc4pqW-98" value="生成&lt;br&gt;文字" style="shape=hexagon;perimeter=hexagonPerimeter2;whiteSpace=wrap;html=1;fixedSize=1;" vertex="1" name="六边形" parent="WIyWlLk6GJQsqaUBKTNV-1">
          <mxGeometry x="575" y="359" width="70" height="40" as="geometry" />
        </mxCell>
        <mxCell id="OJuao177084ycJFc4pqW-99" value="想到了" style="whiteSpace=wrap;html=1;" vertex="1" name="长方形" parent="WIyWlLk6GJQsqaUBKTNV-1">
          <mxGeometry x="662" y="364" width="80" height="30" as="geometry" />
        </mxCell>
      </root>
    </mxGraphModel>
  </diagram>
</mxfile>
